<svg width="542" height="97" viewBox="0 0 542 97" fill="none" xmlns="http://www.w3.org/2000/svg">
<path d="M535.658 35H518.57L514.682 30.2H485.114L481.226 35H464.138L491.354 1.39999H508.442L535.658 35ZM506.906 20.6L499.898 11.96L492.89 20.6H506.906Z" stroke="black"/>
<path d="M404.606 1.39999H419.774V23.48H462.206V35H404.606V1.39999Z" stroke="black"/>
<path d="M336.919 1.39999H352.087V12.44H385.591V1.39999H400.759V35H385.591V23.96H352.087V35H336.919V1.39999Z" stroke="black"/>
<path d="M269.231 1.39999H284.399L317.903 20.6V1.39999H333.071V35H317.903L284.399 15.8V35H269.231V1.39999Z" stroke="black"/>
<path d="M267.298 35H250.21L246.322 30.2H216.754L212.866 35H195.778L222.994 1.39999H240.082L267.298 35ZM238.546 20.6L231.538 11.96L224.53 20.6H238.546Z" stroke="black"/>
<path d="M136.247 1.39999H151.415V23.48H193.847V35H136.247V1.39999Z" stroke="black"/>
<path d="M68.5595 1.39999H83.7275V12.44H117.232V1.39999H132.4V35H117.232V23.96H83.7275V35H68.5595V1.39999Z" stroke="black"/>
<path d="M0.919983 1.39999H16.088L49.592 20.6V1.39999H64.76V35H49.592L16.088 15.8V35H0.919983V1.39999Z" stroke="black"/>
<path fill-rule="evenodd" clip-rule="evenodd" d="M459.436 81.856C458.32 79.128 457.762 76.276 457.762 73.3V51.6H477.354V73.3C477.354 75.036 477.953 76.5033 479.152 77.702C480.35 78.9006 481.818 79.5 483.554 79.5H514.43C516.166 79.5 517.633 78.9006 518.832 77.702C520.03 76.5033 520.63 75.036 520.63 73.3V51.6H540.222V73.3C540.222 76.276 539.643 79.128 538.486 81.856C537.37 84.5426 535.82 86.9193 533.836 88.986C531.893 91.0113 529.599 92.6233 526.954 93.822C524.308 95.0206 521.498 95.62 518.522 95.62H479.462C476.486 95.62 473.675 95.0206 471.03 93.822C468.384 92.6233 466.07 91.0113 464.086 88.986C462.143 86.9193 460.593 84.5426 459.436 81.856ZM539.408 82.2414C540.617 79.3909 541.222 76.4077 541.222 73.3V50.6H519.63V73.3C519.63 74.7779 519.131 75.9887 518.125 76.9949C517.118 78.001 515.908 78.5 514.43 78.5H483.554C482.076 78.5 480.865 78.001 479.859 76.9949C478.853 75.9887 478.354 74.7779 478.354 73.3V50.6H456.762V73.3C456.762 76.4045 457.345 79.3852 458.51 82.2346L458.514 82.2431L458.517 82.2516C459.719 85.0416 461.332 87.5169 463.357 89.6709L463.364 89.6784L463.371 89.6858C465.444 91.8017 467.862 93.4843 470.617 94.7328C473.395 95.9917 476.347 96.62 479.462 96.62H518.522C521.636 96.62 524.588 95.9917 527.366 94.7328C530.124 93.4835 532.524 91.7986 534.557 89.6785C536.628 87.5213 538.246 85.0402 539.408 82.2414Z" fill="black"/>
<path fill-rule="evenodd" clip-rule="evenodd" d="M371.209 50.6H392.801V73.502L425.961 50.6H457.878L424.995 73.3L457.878 96H425.961L409.037 84.3113L392.113 96H371.209V50.6ZM409.037 83.096L426.273 95H454.669L423.235 73.3L454.669 51.6H426.273L391.801 75.408V51.6H372.209V95H391.801L409.037 83.096Z" fill="black"/>
<path fill-rule="evenodd" clip-rule="evenodd" d="M286.453 81.856C285.337 79.128 284.779 76.276 284.779 73.3V51.6H304.371V73.3C304.371 75.036 304.971 76.5033 306.169 77.702C307.368 78.9006 308.835 79.5 310.571 79.5H341.447C343.183 79.5 344.651 78.9006 345.849 77.702C347.048 76.5033 347.647 75.036 347.647 73.3V51.6H367.239V73.3C367.239 76.276 366.661 79.128 365.503 81.856C364.387 84.5426 362.837 86.9193 360.853 88.986C358.911 91.0113 356.617 92.6233 353.971 93.822C351.326 95.0206 348.515 95.62 345.539 95.62H306.479C303.503 95.62 300.693 95.0206 298.047 93.822C295.402 92.6233 293.087 91.0113 291.103 88.986C289.161 86.9193 287.611 84.5426 286.453 81.856ZM361.575 89.6782C359.541 91.7986 357.141 93.4835 354.384 94.7328C351.606 95.9917 348.654 96.62 345.539 96.62H306.479C303.365 96.62 300.413 95.9917 297.635 94.7328C294.879 93.4843 292.462 91.8017 290.389 89.6858L290.382 89.6784L290.375 89.6709C288.35 87.5169 286.737 85.0416 285.535 82.2516L285.531 82.2431L285.528 82.2346C284.362 79.3852 283.779 76.4045 283.779 73.3V50.6H305.371V73.3C305.371 74.7779 305.87 75.9887 306.876 76.9949C307.883 78.001 309.093 78.5 310.571 78.5H341.447C342.925 78.5 344.136 78.001 345.142 76.9949C346.148 75.9887 346.647 74.7779 346.647 73.3V50.6H368.239V73.3C368.239 76.409 367.634 79.3933 366.425 82.2449C365.262 85.0421 363.645 87.522 361.575 89.6782Z" fill="black"/>
<path fill-rule="evenodd" clip-rule="evenodd" d="M206.096 76.4735L206.082 76.4683C204.329 75.8108 202.813 74.9242 201.551 73.7979L201.544 73.7914L201.537 73.7848C200.272 72.6107 199.302 71.2099 198.628 69.5926C197.952 67.9708 197.621 66.2057 197.621 64.31C197.621 62.4156 197.952 60.6351 198.623 58.9788C199.291 57.2865 200.255 55.8245 201.516 54.6064C202.776 53.3483 204.297 52.3695 206.062 51.6635L206.07 51.6604C207.897 50.9473 209.924 50.6 212.137 50.6H280.221V67.48H220.259C219.731 67.48 219.547 67.6286 219.46 67.7441C219.253 68.0431 219.213 68.2357 219.213 68.34C219.213 68.4484 219.255 68.6568 219.455 68.9859C219.545 69.0768 219.75 69.2 220.259 69.2H268.185C270.385 69.2 272.383 69.5226 274.164 70.1885C275.965 70.8051 277.51 71.6948 278.778 72.8705C280.048 74.0063 281.02 75.3898 281.694 77.0074C282.37 78.6292 282.701 80.3942 282.701 82.29C282.701 84.1863 282.37 85.9855 281.701 87.6791L281.698 87.6877C281.028 89.34 280.065 90.7963 278.812 92.0491L278.806 92.0555L278.799 92.0618C277.536 93.28 275.994 94.2352 274.194 94.9381C272.404 95.6534 270.396 96 268.185 96H200.101V79.12H260.063C260.644 79.12 260.769 78.9619 260.794 78.9265L260.799 78.9191L260.804 78.9118C261.071 78.5455 261.109 78.3374 261.109 78.26C261.109 78.1939 261.08 78.016 260.832 77.7067L260.798 77.6645L260.769 77.6189C260.729 77.5559 260.609 77.4 260.063 77.4H212.137C209.938 77.4 207.925 77.0982 206.11 76.4783L206.096 76.4735ZM273.827 94.008C275.522 93.3466 276.948 92.458 278.105 91.342C279.262 90.1846 280.151 88.8413 280.771 87.312C281.391 85.7413 281.701 84.0673 281.701 82.29C281.701 80.5126 281.391 78.88 280.771 77.392C280.151 75.904 279.262 74.6433 278.105 73.61C276.948 72.5353 275.522 71.7086 273.827 71.13C272.174 70.51 270.293 70.2 268.185 70.2H220.259C219.515 70.2 218.978 69.9933 218.647 69.58C218.358 69.1253 218.213 68.712 218.213 68.34C218.213 67.968 218.358 67.5753 218.647 67.162C218.978 66.7073 219.515 66.48 220.259 66.48H279.221V51.6H212.137C210.029 51.6 208.128 51.9306 206.433 52.592C204.78 53.2533 203.374 54.1626 202.217 55.32C201.06 56.436 200.171 57.7793 199.551 59.35C198.931 60.8793 198.621 62.5326 198.621 64.31C198.621 66.0873 198.931 67.72 199.551 69.208C200.171 70.696 201.06 71.9773 202.217 73.052C203.374 74.0853 204.78 74.912 206.433 75.532C208.128 76.1106 210.029 76.4 212.137 76.4H260.063C260.807 76.4 261.324 76.6273 261.613 77.082C261.944 77.4953 262.109 77.888 262.109 78.26C262.109 78.632 261.944 79.0453 261.613 79.5C261.324 79.9133 260.807 80.12 260.063 80.12H201.101V95H268.185C270.293 95 272.174 94.6693 273.827 94.008Z" fill="black"/>
<path fill-rule="evenodd" clip-rule="evenodd" d="M201.914 96H177.269L172.247 89.8H135.008L129.986 96H105.341L142.115 50.6H165.14L201.101 94.9959V95H201.104L201.914 96ZM134.532 88.8H172.724L177.746 95H199.818L164.664 51.6H142.592L107.438 95H129.51L134.532 88.8ZM153.628 65.24L144.576 76.4H162.68L153.628 65.24ZM153.628 66.8274L146.674 75.4H160.581L153.628 66.8274Z" fill="black"/>
<path fill-rule="evenodd" clip-rule="evenodd" d="M2.47998 50.6H30.1207L53.762 79.7717L77.4032 50.6H106.036V96H84.444V72.3407L65.2748 96H42.2494L24.072 73.5793V96H2.47998V50.6ZM23.072 70.758L42.726 95H64.798L85.444 69.518V95H105.036V51.6H77.88L53.762 81.36L29.644 51.6H3.47998V95H23.072V70.758Z" fill="black"/>
</svg>
