<svg width="536" height="88" viewBox="0 0 536 88" fill="none" xmlns="http://www.w3.org/2000/svg">
<path d="M416.462 70.2C416.462 72.504 416.014 74.712 415.118 76.824C414.254 78.904 413.054 80.744 411.518 82.344C410.014 83.912 408.238 85.16 406.19 86.088C404.142 87.016 401.966 87.48 399.662 87.48H369.422C367.118 87.48 364.942 87.016 362.894 86.088C360.846 85.16 359.054 83.912 357.518 82.344C356.014 80.744 354.814 78.904 353.918 76.824C353.054 74.712 352.622 72.504 352.622 70.2V53.4H367.79V70.2C367.79 71.544 368.254 72.68 369.182 73.608C370.11 74.536 371.246 75 372.59 75H396.494C397.838 75 398.974 74.536 399.902 73.608C400.83 72.68 401.294 71.544 401.294 70.2V53.4H416.462V70.2Z" fill="black"/>
<path d="M286.388 53.4H301.556V71.832L328.244 53.4H350.228L325.892 70.2L350.228 87H328.244L314.9 77.784L301.556 87H286.388V53.4Z" fill="black"/>
<path d="M282.54 70.2C282.54 72.504 282.092 74.712 281.196 76.824C280.332 78.904 279.132 80.744 277.596 82.344C276.092 83.912 274.316 85.16 272.268 86.088C270.22 87.016 268.044 87.48 265.74 87.48H235.5C233.196 87.48 231.02 87.016 228.972 86.088C226.924 85.16 225.132 83.912 223.596 82.344C222.092 80.744 220.892 78.904 219.996 76.824C219.132 74.712 218.7 72.504 218.7 70.2V53.4H233.868V70.2C233.868 71.544 234.332 72.68 235.26 73.608C236.188 74.536 237.324 75 238.668 75H262.572C263.916 75 265.052 74.536 265.98 73.608C266.908 72.68 267.372 71.544 267.372 70.2V53.4H282.54V70.2Z" fill="black"/>
<path d="M162.461 72.6C160.829 72.6 159.357 72.376 158.045 71.928C156.765 71.448 155.677 70.808 154.781 70.008C153.885 69.176 153.197 68.184 152.717 67.032C152.237 65.88 151.997 64.616 151.997 63.24C151.997 61.864 152.237 60.584 152.717 59.4C153.197 58.184 153.885 57.144 154.781 56.28C155.677 55.384 156.765 54.68 158.045 54.168C159.357 53.656 160.829 53.4 162.461 53.4H214.397V64.92H168.749C168.173 64.92 167.757 65.096 167.501 65.448C167.277 65.768 167.165 66.072 167.165 66.36C167.165 66.648 167.277 66.968 167.501 67.32C167.757 67.64 168.173 67.8 168.749 67.8H205.853C207.485 67.8 208.941 68.04 210.221 68.52C211.533 68.968 212.637 69.608 213.533 70.44C214.429 71.24 215.117 72.216 215.597 73.368C216.077 74.52 216.317 75.784 216.317 77.16C216.317 78.536 216.077 79.832 215.597 81.048C215.117 82.232 214.429 83.272 213.533 84.168C212.637 85.032 211.533 85.72 210.221 86.232C208.941 86.744 207.485 87 205.853 87H153.917V75.48H199.565C200.141 75.48 200.541 75.32 200.765 75C201.021 74.648 201.149 74.328 201.149 74.04C201.149 73.752 201.021 73.448 200.765 73.128C200.541 72.776 200.141 72.6 199.565 72.6H162.461Z" fill="black"/>
<path d="M152.923 87H135.835L131.947 82.2H102.379L98.4913 87H81.4033L108.619 53.4H125.707L152.923 87ZM124.171 72.6L117.163 63.96L110.155 72.6H124.171Z" fill="black"/>
<path d="M1 53H21.6105L40.6093 76.3143L59.608 53H81V87H65.5665V67.0371L49.3028 87H31.9157L16.4335 68.0086V87H1V53Z" fill="black"/>
<path d="M535.658 34H518.57L514.682 29.2H485.114L481.226 34H464.138L491.354 0.399994H508.442L535.658 34ZM506.906 19.6L499.898 10.96L492.89 19.6H506.906Z" fill="black"/>
<path d="M404.606 0.399994H419.774V22.48H462.206V34H404.606V0.399994Z" fill="black"/>
<path d="M336.919 0.399994H352.087V11.44H385.591V0.399994H400.759V34H385.591V22.96H352.087V34H336.919V0.399994Z" fill="black"/>
<path d="M269.231 0.399994H284.399L317.903 19.6V0.399994H333.071V34H317.903L284.399 14.8V34H269.231V0.399994Z" fill="black"/>
<path d="M267.298 34H250.21L246.322 29.2H216.754L212.866 34H195.778L222.994 0.399994H240.082L267.298 34ZM238.546 19.6L231.538 10.96L224.53 19.6H238.546Z" fill="black"/>
<path d="M136.247 0.399994H151.415V22.48H193.847V34H136.247V0.399994Z" fill="black"/>
<path d="M68.5595 0.399994H83.7275V11.44H117.232V0.399994H132.4V34H117.232V22.96H83.7275V34H68.5595V0.399994Z" fill="black"/>
<path d="M0.919983 0.399994H16.088L49.592 19.6V0.399994H64.76V34H49.592L16.088 14.8V34H0.919983V0.399994Z" fill="black"/>
</svg>
