<svg width="557" height="102" viewBox="0 0 557 102" fill="none" xmlns="http://www.w3.org/2000/svg">
<path d="M360.993 91.7675L360.968 91.7412C359.177 89.8356 357.755 87.6503 356.704 85.2087L356.691 85.1791L356.679 85.1492C355.641 82.6124 355.122 79.9539 355.122 77.2V60.4V56.9H358.622H373.79H377.29V60.4V77.2C377.29 77.6408 377.403 77.879 377.657 78.1331C377.911 78.3873 378.149 78.5 378.59 78.5H402.494C402.935 78.5 403.173 78.3873 403.427 78.1331C403.681 77.879 403.794 77.6408 403.794 77.2V60.4V56.9H407.294H422.462H425.962V60.4V77.2C425.962 79.9672 425.422 82.6362 424.345 85.1788C423.318 87.6483 421.882 89.8519 420.044 91.7668L360.993 91.7675ZM360.993 91.7675L361.018 91.7932M360.993 91.7675L361.018 91.7932M361.018 91.7932C362.864 93.6783 365.017 95.1736 367.449 96.276C369.963 97.4148 372.632 97.98 375.422 97.98H405.662C408.452 97.98 411.121 97.4148 413.635 96.276C416.074 95.1708 418.22 93.6682 420.043 91.7679L361.018 91.7932Z" stroke="black" stroke-width="7"/>
<path d="M292.388 56.9H288.888V60.4V94V97.5H292.388H307.556H308.647L309.545 96.8799L320.9 89.0376L332.255 96.8799L333.152 97.5H334.244H356.228H367.458L358.216 91.1197L338.052 77.2L358.216 63.2803L367.458 56.9H356.228H334.244H333.152L332.255 57.5201L311.056 72.1611V60.4V56.9H307.556H292.388Z" stroke="black" stroke-width="7"/>
<path d="M227.071 91.7675L227.046 91.7412C225.255 89.8356 223.833 87.6503 222.782 85.2087L222.769 85.1791L222.757 85.1492C221.719 82.6124 221.2 79.9539 221.2 77.2V60.4V56.9H224.7H239.868H243.368V60.4V77.2C243.368 77.6408 243.481 77.879 243.735 78.1331C243.989 78.3873 244.227 78.5 244.668 78.5H268.572C269.013 78.5 269.251 78.3873 269.505 78.1331C269.759 77.879 269.872 77.6408 269.872 77.2V60.4V56.9H273.372H288.54H292.04V60.4V77.2C292.04 79.9672 291.5 82.6362 290.423 85.1788C289.396 87.6483 287.96 89.8519 286.122 91.7668L227.071 91.7675ZM227.071 91.7675L227.096 91.7932M227.071 91.7675L227.096 91.7932M227.096 91.7932C228.942 93.6783 231.095 95.1736 233.528 96.276C236.041 97.4148 238.711 97.98 241.5 97.98H271.74C274.53 97.98 277.199 97.4148 279.713 96.276C282.152 95.1708 284.298 93.6682 286.121 91.7679L227.096 91.7932Z" stroke="black" stroke-width="7"/>
<path d="M155.486 75.3781C156.046 76.7221 156.821 77.9298 157.804 78.98H156.417V82.48V94V97.5H159.917H211.853C213.845 97.5 215.749 97.1881 217.507 96.4873C219.188 95.8295 220.696 94.9088 221.962 93.6875L221.985 93.6654L222.008 93.6429C223.238 92.4128 224.186 90.9775 224.841 89.363L224.847 89.348L224.853 89.3331C225.502 87.6866 225.817 85.9525 225.817 84.16C225.817 82.3695 225.503 80.6422 224.828 79.0218C224.265 77.6702 223.481 76.46 222.478 75.42H223.897V71.92V60.4V56.9H220.397H168.461C166.462 56.9 164.549 57.2142 162.773 57.9075L162.759 57.9128L162.745 57.9183C161.074 58.5868 159.584 59.5341 158.329 60.7827C157.069 62.0035 156.118 63.4582 155.467 65.1C154.809 66.7286 154.497 68.4537 154.497 70.24C154.497 72.0305 154.811 73.7578 155.486 75.3781L158.717 74.032L155.486 75.3781Z" stroke="black" stroke-width="7"/>
<path d="M158.923 97.5H166.262L161.643 91.797L134.427 58.197L133.376 56.9H131.707H114.619H112.95L111.9 58.197L84.6835 91.797L80.0641 97.5H87.4033H104.491H106.16L107.211 96.203L110.048 92.7H136.278L139.116 96.203L140.166 97.5H141.835H158.923Z" stroke="black" stroke-width="7"/>
<path d="M7 56.5H3.5V60V94V97.5H7H22.4335H25.9335V94V84.841L35.203 96.2115L36.2534 97.5H37.9157H55.3028H56.9659L58.0163 96.2107L68.0665 83.8745V94V97.5H71.5665H87H90.5V94V60V56.5H87H65.608H63.9452L62.8948 57.789L46.6093 77.7738L30.3237 57.789L29.2733 56.5H27.6105H7Z" stroke="black" stroke-width="7"/>
<path d="M541.658 44.5H548.997L544.377 38.797L517.161 5.19702L516.111 3.89999H514.442H497.354H495.685L494.634 5.19702L467.418 38.797L462.799 44.5H470.138H487.226H488.895L489.945 43.203L492.783 39.7H519.013L521.85 43.203L522.901 44.5H524.57H541.658Z" stroke="black" stroke-width="7"/>
<path d="M410.606 3.89999H407.106V7.39999V41V44.5H410.606H468.206H471.706V41V29.48V25.98H468.206H429.274V7.39999V3.89999H425.774H410.606Z" stroke="black" stroke-width="7"/>
<path d="M342.919 3.89999H339.419V7.39999V41V44.5H342.919H358.087H361.587V41V33.46H388.091V41V44.5H391.591H406.759H410.259V41V7.39999V3.89999H406.759H391.591H388.091V7.39999V14.94H361.587V7.39999V3.89999H358.087H342.919Z" stroke="black" stroke-width="7"/>
<path d="M275.231 3.89999H271.731V7.39999V41V44.5H275.231H290.399H293.899V41V27.8397L322.163 44.0367L322.972 44.5H323.903H339.071H342.571V41V7.39999V3.89999H339.071H323.903H320.403V7.39999V20.5603L292.14 4.36329L291.331 3.89999H290.399H275.231Z" stroke="black" stroke-width="7"/>
<path d="M273.298 44.5H280.637L276.018 38.797L248.802 5.19702L247.751 3.89999H246.082H228.994H227.325L226.275 5.19702L199.059 38.797L194.439 44.5H201.778H218.866H220.535L221.586 43.203L224.423 39.7H250.653L253.491 43.203L254.541 44.5H256.21H273.298Z" stroke="black" stroke-width="7"/>
<path d="M142.247 3.89999H138.747V7.39999V41V44.5H142.247H199.847H203.347V41V29.48V25.98H199.847H160.915V7.39999V3.89999H157.415H142.247Z" stroke="black" stroke-width="7"/>
<path d="M77 3.5H73.5V7V41V44.5H77H91.4932H94.9932V41V33.3286H120.007V41V44.5H123.507H138H141.5V41V7V3.5H138H123.507H120.007V7V14.6714H94.9932V7V3.5H91.4932H77Z" stroke="black" stroke-width="7"/>
<path d="M7.00007 3.49998H3.50007V6.99998V41V44.5H7.00007H23.6316H27.1316V41V31.5821L59.078 44.2534L59.6997 44.5H60.3685H77.0001H80.5001V41V6.99998V3.49998H77.0001H60.3685H56.8685V6.99998V15.2721L24.8196 3.70776L24.2438 3.49998H23.6316H7.00007Z" stroke="black" stroke-width="7"/>
</svg>
